<svg xmlns="http://www.w3.org/2000/svg" viewBox="0 0 500 500"><path d="M 362,113 362,202 361,203 361,207 360,208 360,211 359,212 359,214 358,215 358,216 357,217 357,218 356,219 356,220 355,221 355,222 354,223 354,224 351,227 351,228 342,237 341,237 338,240 337,240 336,241 335,241 334,242 333,242 332,243 331,243 330,244 329,244 328,245 326,245 325,246 323,246 322,247 319,247 318,248 301,248 300,247 297,247 296,246 293,246 292,245 290,245 289,244 288,244 287,243 286,243 285,242 284,242 283,241 282,241 280,239 279,239 273,233 272,233 271,232 271,231 267,227 267,226 264,223 264,222 263,221 263,220 262,219 262,218 261,217 261,216 260,215 260,213 259,212 259,210 258,209 258,206 257,205 257,197 256,196 249,196 246,199 246,200 242,204 242,205 238,209 238,210 234,214 234,215 230,219 230,224 231,225 231,227 232,228 232,230 233,231 233,233 234,234 234,235 235,236 235,238 236,239 236,240 237,241 237,242 238,243 238,244 240,246 240,247 241,248 241,249 244,252 244,253 249,258 249,259 253,263 254,263 258,267 259,267 261,269 262,269 264,271 265,271 266,272 267,272 269,274 271,274 272,275 273,275 274,276 275,276 276,277 277,277 278,278 280,278 281,279 284,279 285,280 287,280 288,281 293,281 294,282 300,282 301,283 309,283 309,276 308,275 297,275 296,274 292,274 291,273 287,273 286,272 284,272 283,271 281,271 280,270 279,270 278,269 276,269 275,268 274,268 273,267 272,267 270,265 269,265 268,264 267,264 265,262 264,262 259,257 258,257 253,252 253,251 249,247 249,246 247,244 247,243 246,242 246,241 244,239 244,238 243,237 243,236 242,235 242,234 241,233 241,231 240,230 240,228 239,227 239,225 238,224 238,222 240,220 240,219 244,215 244,214 247,211 247,210 249,208 250,208 251,209 251,212 252,213 252,215 253,216 253,218 254,219 254,220 255,221 255,222 256,223 256,224 257,225 257,226 259,228 259,229 261,231 261,232 265,236 265,237 266,237 268,239 268,240 269,240 273,244 274,244 276,246 277,246 279,248 280,248 281,249 282,249 283,250 284,250 285,251 287,251 288,252 289,252 290,253 292,253 293,254 297,254 298,255 303,255 304,256 314,256 315,255 321,255 322,254 325,254 326,253 329,253 330,252 331,252 332,251 334,251 335,250 336,250 337,249 338,249 340,247 341,247 342,246 343,246 346,243 347,243 357,233 357,232 359,230 359,229 361,227 361,226 362,225 362,224 363,223 363,222 364,221 364,220 365,219 365,218 366,217 366,215 367,214 367,212 368,211 368,207 369,206 369,113 Z" fill="black"/>
<path d="M 333,113 331,115 330,115 321,124 320,124 313,131 312,131 309,134 309,210 308,211 308,214 307,215 307,217 305,219 305,220 304,221 303,220 301,220 300,219 298,219 296,217 295,217 287,209 287,208 286,207 286,206 285,205 285,203 284,202 284,197 283,196 276,196 276,200 277,201 277,205 278,206 278,208 279,209 279,210 280,211 280,212 282,214 282,215 290,223 291,223 293,225 294,225 295,226 297,226 298,227 299,227 300,228 305,228 306,229 313,229 314,228 318,228 319,227 321,227 322,226 323,226 324,225 325,225 326,224 327,224 329,222 330,222 336,216 336,215 338,213 338,212 339,211 339,210 340,209 340,208 341,207 341,204 342,203 342,197 343,196 343,114 342,113 Z" fill="black"/>
</svg>